<mxfile host="app.diagrams.net" modified="2023-06-24T17:16:46.621Z" agent="Mozilla/5.0 (Windows NT 10.0; Win64; x64) AppleWebKit/537.36 (KHTML, like Gecko) Chrome/114.0.0.0 Safari/537.36" etag="isrfvCCZRCPBIQOAmSys" version="21.3.8" type="device">
  <diagram id="R2lEEEUBdFMjLlhIrx00" name="Page-1">
    <mxGraphModel dx="1434" dy="756" grid="1" gridSize="10" guides="1" tooltips="1" connect="1" arrows="1" fold="1" page="1" pageScale="1" pageWidth="850" pageHeight="1100" math="0" shadow="0" extFonts="Permanent Marker^https://fonts.googleapis.com/css?family=Permanent+Marker">
      <root>
        <mxCell id="0" />
        <mxCell id="1" parent="0" />
        <mxCell id="fZF1Yw6p9Kvz5Fr0DQUm-17" style="edgeStyle=orthogonalEdgeStyle;rounded=0;orthogonalLoop=1;jettySize=auto;html=1;exitX=1;exitY=0.5;exitDx=0;exitDy=0;entryX=0;entryY=0.5;entryDx=0;entryDy=0;endArrow=none;endFill=0;" parent="1" source="fZF1Yw6p9Kvz5Fr0DQUm-1" target="fZF1Yw6p9Kvz5Fr0DQUm-11" edge="1">
          <mxGeometry relative="1" as="geometry" />
        </mxCell>
        <mxCell id="fZF1Yw6p9Kvz5Fr0DQUm-1" value="CLIENTE" style="rounded=0;whiteSpace=wrap;html=1;fillColor=#dae8fc;strokeColor=#6c8ebf;" parent="1" vertex="1">
          <mxGeometry x="120" y="600" width="120" height="60" as="geometry" />
        </mxCell>
        <mxCell id="fZF1Yw6p9Kvz5Fr0DQUm-2" value="EMPLEADO" style="rounded=0;whiteSpace=wrap;html=1;fillColor=#dae8fc;strokeColor=#6c8ebf;" parent="1" vertex="1">
          <mxGeometry x="305" y="440" width="120" height="60" as="geometry" />
        </mxCell>
        <mxCell id="fZF1Yw6p9Kvz5Fr0DQUm-46" style="edgeStyle=orthogonalEdgeStyle;rounded=0;orthogonalLoop=1;jettySize=auto;html=1;exitX=0.5;exitY=1;exitDx=0;exitDy=0;entryX=0.5;entryY=0;entryDx=0;entryDy=0;endArrow=none;endFill=0;" parent="1" source="fZF1Yw6p9Kvz5Fr0DQUm-3" target="fZF1Yw6p9Kvz5Fr0DQUm-42" edge="1">
          <mxGeometry relative="1" as="geometry" />
        </mxCell>
        <mxCell id="fZF1Yw6p9Kvz5Fr0DQUm-3" value="PROVEEDORES" style="rounded=0;whiteSpace=wrap;html=1;fillColor=#dae8fc;strokeColor=#6c8ebf;" parent="1" vertex="1">
          <mxGeometry x="510" y="470" width="120" height="60" as="geometry" />
        </mxCell>
        <mxCell id="fZF1Yw6p9Kvz5Fr0DQUm-15" style="edgeStyle=orthogonalEdgeStyle;rounded=0;orthogonalLoop=1;jettySize=auto;html=1;entryX=0.5;entryY=1;entryDx=0;entryDy=0;endArrow=none;endFill=0;" parent="1" source="fZF1Yw6p9Kvz5Fr0DQUm-4" target="fZF1Yw6p9Kvz5Fr0DQUm-11" edge="1">
          <mxGeometry relative="1" as="geometry" />
        </mxCell>
        <mxCell id="fZF1Yw6p9Kvz5Fr0DQUm-4" value="FACTURAS" style="rounded=0;whiteSpace=wrap;html=1;fillColor=#dae8fc;strokeColor=#6c8ebf;" parent="1" vertex="1">
          <mxGeometry x="305" y="750" width="120" height="60" as="geometry" />
        </mxCell>
        <mxCell id="fZF1Yw6p9Kvz5Fr0DQUm-28" style="edgeStyle=orthogonalEdgeStyle;rounded=0;orthogonalLoop=1;jettySize=auto;html=1;exitX=0.5;exitY=0;exitDx=0;exitDy=0;endArrow=none;endFill=0;entryX=0.5;entryY=1;entryDx=0;entryDy=0;" parent="1" target="fZF1Yw6p9Kvz5Fr0DQUm-2" edge="1">
          <mxGeometry relative="1" as="geometry">
            <mxPoint x="350" y="500" as="sourcePoint" />
          </mxGeometry>
        </mxCell>
        <mxCell id="fZF1Yw6p9Kvz5Fr0DQUm-11" value="&lt;font style=&quot;font-size: 10px;&quot;&gt;FACTURACION&lt;/font&gt;" style="rhombus;whiteSpace=wrap;html=1;fillColor=#fff2cc;strokeColor=#d6b656;" parent="1" vertex="1">
          <mxGeometry x="320" y="600" width="90" height="60" as="geometry" />
        </mxCell>
        <mxCell id="fZF1Yw6p9Kvz5Fr0DQUm-18" value="1" style="text;html=1;strokeColor=none;fillColor=none;align=center;verticalAlign=middle;whiteSpace=wrap;rounded=0;" parent="1" vertex="1">
          <mxGeometry x="220" y="605" width="60" height="30" as="geometry" />
        </mxCell>
        <mxCell id="fZF1Yw6p9Kvz5Fr0DQUm-19" value="1" style="text;html=1;strokeColor=none;fillColor=none;align=center;verticalAlign=middle;whiteSpace=wrap;rounded=0;" parent="1" vertex="1">
          <mxGeometry x="320" y="720" width="60" height="30" as="geometry" />
        </mxCell>
        <mxCell id="fZF1Yw6p9Kvz5Fr0DQUm-20" value="M" style="text;html=1;strokeColor=none;fillColor=none;align=center;verticalAlign=middle;whiteSpace=wrap;rounded=0;" parent="1" vertex="1">
          <mxGeometry x="560" y="530" width="60" height="30" as="geometry" />
        </mxCell>
        <mxCell id="fZF1Yw6p9Kvz5Fr0DQUm-23" value="N" style="text;html=1;strokeColor=none;fillColor=none;align=center;verticalAlign=middle;whiteSpace=wrap;rounded=0;" parent="1" vertex="1">
          <mxGeometry x="280" y="605" width="60" height="30" as="geometry" />
        </mxCell>
        <mxCell id="fZF1Yw6p9Kvz5Fr0DQUm-24" value="N" style="text;html=1;strokeColor=none;fillColor=none;align=center;verticalAlign=middle;whiteSpace=wrap;rounded=0;" parent="1" vertex="1">
          <mxGeometry x="390" y="605" width="60" height="30" as="geometry" />
        </mxCell>
        <mxCell id="fZF1Yw6p9Kvz5Fr0DQUm-25" value="N" style="text;html=1;strokeColor=none;fillColor=none;align=center;verticalAlign=middle;whiteSpace=wrap;rounded=0;" parent="1" vertex="1">
          <mxGeometry x="320" y="660" width="60" height="30" as="geometry" />
        </mxCell>
        <mxCell id="fZF1Yw6p9Kvz5Fr0DQUm-31" style="edgeStyle=orthogonalEdgeStyle;rounded=0;orthogonalLoop=1;jettySize=auto;html=1;entryX=1;entryY=0.5;entryDx=0;entryDy=0;endArrow=none;endFill=0;" parent="1" source="fZF1Yw6p9Kvz5Fr0DQUm-29" target="fZF1Yw6p9Kvz5Fr0DQUm-11" edge="1">
          <mxGeometry relative="1" as="geometry" />
        </mxCell>
        <mxCell id="fZF1Yw6p9Kvz5Fr0DQUm-45" style="edgeStyle=orthogonalEdgeStyle;rounded=0;orthogonalLoop=1;jettySize=auto;html=1;entryX=0.5;entryY=1;entryDx=0;entryDy=0;endArrow=none;endFill=0;" parent="1" source="fZF1Yw6p9Kvz5Fr0DQUm-29" target="fZF1Yw6p9Kvz5Fr0DQUm-42" edge="1">
          <mxGeometry relative="1" as="geometry" />
        </mxCell>
        <mxCell id="fZF1Yw6p9Kvz5Fr0DQUm-29" value="PRODUCTO" style="rounded=0;whiteSpace=wrap;html=1;fillColor=#dae8fc;strokeColor=#6c8ebf;" parent="1" vertex="1">
          <mxGeometry x="510" y="720" width="120" height="60" as="geometry" />
        </mxCell>
        <mxCell id="fZF1Yw6p9Kvz5Fr0DQUm-34" value="1" style="text;html=1;strokeColor=none;fillColor=none;align=center;verticalAlign=middle;whiteSpace=wrap;rounded=0;" parent="1" vertex="1">
          <mxGeometry x="460" y="720" width="60" height="30" as="geometry" />
        </mxCell>
        <mxCell id="fZF1Yw6p9Kvz5Fr0DQUm-35" value="N" style="text;html=1;strokeColor=none;fillColor=none;align=center;verticalAlign=middle;whiteSpace=wrap;rounded=0;" parent="1" vertex="1">
          <mxGeometry x="560" y="690" width="60" height="30" as="geometry" />
        </mxCell>
        <mxCell id="fZF1Yw6p9Kvz5Fr0DQUm-42" value="PROVEE" style="rhombus;whiteSpace=wrap;html=1;fillColor=#fff2cc;strokeColor=#d6b656;" parent="1" vertex="1">
          <mxGeometry x="530" y="590" width="80" height="50" as="geometry" />
        </mxCell>
        <mxCell id="V7335tHITJniIyXWrnvK-2" value="" style="edgeStyle=orthogonalEdgeStyle;rounded=0;orthogonalLoop=1;jettySize=auto;html=1;exitX=0.5;exitY=0;exitDx=0;exitDy=0;endArrow=none;endFill=0;entryX=0.5;entryY=1;entryDx=0;entryDy=0;" edge="1" parent="1" source="fZF1Yw6p9Kvz5Fr0DQUm-11" target="fZF1Yw6p9Kvz5Fr0DQUm-2">
          <mxGeometry relative="1" as="geometry">
            <mxPoint x="365" y="600" as="sourcePoint" />
            <mxPoint x="380" y="500" as="targetPoint" />
          </mxGeometry>
        </mxCell>
        <mxCell id="V7335tHITJniIyXWrnvK-3" value="N" style="text;html=1;strokeColor=none;fillColor=none;align=center;verticalAlign=middle;whiteSpace=wrap;rounded=0;" vertex="1" parent="1">
          <mxGeometry x="320" y="570" width="60" height="30" as="geometry" />
        </mxCell>
        <mxCell id="V7335tHITJniIyXWrnvK-4" value="1" style="text;html=1;strokeColor=none;fillColor=none;align=center;verticalAlign=middle;whiteSpace=wrap;rounded=0;" vertex="1" parent="1">
          <mxGeometry x="320" y="500" width="60" height="30" as="geometry" />
        </mxCell>
      </root>
    </mxGraphModel>
  </diagram>
</mxfile>
